# xmcd CD database file
#
# Track frame offsets:
#	150
#	17812
#	41711
#
# Disc length: 791 seconds
#
# Revision: 1
# Processed by: cddbd v1.5.1PL0 Copyright (c) Steve Scherf et al.
# Submitted via: CDex 1.51
#
DISCID=1e031503
DTITLE=NO PLAN - Oh!サマー
DYEAR=2005
DGENRE=JPop
TTITLE0=Oh!サマー
TTITLE1=内PノーカットクイズII
TTITLE2=Oh!サマー（オリジナル・カラオケ）
EXTD=YEAR: 2005
EXTT0=
EXTT1=
EXTT2=
PLAYORDER=
